<svg xmlns="http://www.w3.org/2000/svg" data-name="Layer 1" viewBox="0 0 100 100" x="0px" y="0px"><title>Artboard 23</title><path d="M86.51,64.11A6.86,6.86,0,0,0,79.9,59H64.36V51a8.71,8.71,0,0,0,11.28,2L88.3,45.32a7.52,7.52,0,0,0,2.53-10.41,7.56,7.56,0,0,0-10.26-2.5l-7.16,4.36-2.86-5a14.16,14.16,0,0,0-12.23-7.07h-.67a12.31,12.31,0,0,0,4.59-11.66A12.14,12.14,0,0,0,52.33,2.83a12.39,12.39,0,0,0-10,21.91h-.68a14.16,14.16,0,0,0-12.23,7.07l-2.86,5L19.4,32.4A7.56,7.56,0,0,0,9.16,34.91a7.52,7.52,0,0,0,2.51,10.4l12.71,7.76A8.7,8.7,0,0,0,35.65,51v8H20.1a6.86,6.86,0,0,0-6.61,5.07L6.51,90a5.85,5.85,0,0,0,5.65,7.37H87.84A5.85,5.85,0,0,0,93.49,90ZM31.74,47.9A3.69,3.69,0,0,1,27,48.8L14.27,41a2.52,2.52,0,0,1,2.56-4.35l9.35,5.69a2.5,2.5,0,0,0,3.47-.89l4.14-7.18a9.14,9.14,0,0,1,7.9-4.56h1.73A4.66,4.66,0,0,0,46,21.19,7.39,7.39,0,0,1,51.43,7.75a7.2,7.2,0,0,1,5.88,6.08,7.37,7.37,0,0,1-3.24,7.34,4.66,4.66,0,0,0,2.54,8.57h1.72a9.14,9.14,0,0,1,7.9,4.56l4.14,7.18a2.5,2.5,0,0,0,3.47.89l9.32-5.68a2.54,2.54,0,0,1,3.43.84,2.52,2.52,0,0,1-.87,3.5L73,48.79a3.69,3.69,0,0,1-4.79-.88l-4.44-5.64a2.5,2.5,0,0,0-4.46,1.54V59H40.65V43.81a2.5,2.5,0,0,0-4.47-1.54ZM88.52,92a.83.83,0,0,1-.67.33H12.16a.85.85,0,0,1-.82-1.07l7-25.89A1.85,1.85,0,0,1,20.1,64H79.9a1.85,1.85,0,0,1,1.79,1.37l7,25.9A.83.83,0,0,1,88.52,92Z"></path></svg>